<?xml version="1.0" encoding="utf-8"?>
<!-- Generator: Adobe Illustrator 17.1.0, SVG Export Plug-In . SVG Version: 6.00 Build 0)  -->
<!DOCTYPE svg PUBLIC "-//W3C//DTD SVG 1.1//EN" "http://www.w3.org/Graphics/SVG/1.1/DTD/svg11.dtd">
<svg version="1.1" id="Layer_1" xmlns="http://www.w3.org/2000/svg" xmlns:xlink="http://www.w3.org/1999/xlink" x="0px" y="0px" width="65" height="65"
	 viewBox="0 0 65 65" enable-background="new 0 0 65 65" xml:space="preserve">
<g>
	<g>
		<path fill="#F15623" d="M49.5,36.5c0-1.4-0.8-2.6-2-3.1c0.8-3.6,1.5-6.1,1.5-6.2c0.1-0.2,0-0.5-0.2-0.7c-0.2-0.2-0.4-0.3-0.7-0.3
			c-0.4,0-10.1,1.1-15.8,7.5c-5.7-6.2-15.5-7.5-15.9-7.5c-0.3,0-0.5,0.1-0.7,0.3c-0.2,0.2-0.2,0.5-0.2,0.7c0,0,0.7,2.6,1.5,6.2
			c-1.2,0.5-2,1.7-2,3.1c0,1.9,1.5,3.4,3.4,3.5c0.4,2.3,0.8,4.4,1,6.3c0,0.3,0.2,0.5,0.5,0.6c0.1,0,7.9,2.8,11.5,6.8
			c0.2,0.2,0.4,0.3,0.6,0.3c0.1,0,0.1-0.1,0.2-0.1c0,0,0,0,0,0c0.1,0,0.2,0,0.3,0c0.2,0,0.4-0.1,0.6-0.3c3.5-4,11.4-6.8,11.5-6.8
			c0.3-0.1,0.5-0.3,0.5-0.6c0.2-1.9,0.6-4.1,1-6.3C48,39.9,49.5,38.4,49.5,36.5z M16.6,36.5c0-1.1,0.9-1.9,1.9-1.9
			c1.1,0,1.9,0.9,1.9,1.9s-0.9,1.9-1.9,1.9C17.5,38.4,16.6,37.6,16.6,36.5z M20.9,45.6c-0.2-1.8-0.6-3.8-1-5.9c1.2-0.5,2-1.7,2-3.1
			c0-1.9-1.5-3.4-3.4-3.5c-0.5-2.2-0.9-4-1.2-5.1c2.8,0.5,10.1,2.4,14.3,7.4c0.1,0.1,0.1,0.1,0.2,0.1l-0.1,16.5
			C28.3,48.5,22.6,46.2,20.9,45.6z M33.3,51.3L33.4,39l0-4.1c4.2-4.8,11.1-6.5,13.7-6.9c-0.3,1.1-0.7,2.9-1.2,5.1
			c-1.9,0-3.4,1.6-3.4,3.5c0,1.4,0.8,2.6,2,3.1c-0.4,2.1-0.7,4.1-1,5.9C42.1,46.2,36.9,48.3,33.3,51.3z M46,38.4
			c-1.1,0-1.9-0.9-1.9-1.9c0-1.1,0.9-1.9,1.9-1.9c1.1,0,1.9,0.9,1.9,1.9C48,37.6,47.1,38.4,46,38.4z"/>
		<path fill="#F15623" d="M33,41.6c0.5-1.7,1.8-2.8,3.1-3.7c2.3-1.5,4.8-2.5,7.3-2.7"/>
		<path fill="#F15623" d="M33,47.2c0.5-1.7,1.8-2.8,3.1-3.7c2.3-1.5,4.8-2.5,7.3-2.7"/>
		<path fill="#F15623" d="M32.2,41.6c-0.6-1.7-1.9-2.8-3.3-3.7c-2.3-1.5-5-2.5-7.6-2.7"/>
		<path fill="#F15623" d="M32.2,47.2c-0.6-1.7-1.9-2.8-3.3-3.7c-2.3-1.5-5-2.5-7.6-2.7"/>
	</g>
	<circle fill="none" stroke="#F15623" stroke-width="1.5" stroke-miterlimit="10" cx="32.2" cy="20.5" r="8"/>
</g>
</svg>
