<?xml version="1.0" encoding="utf-8"?>
<!-- Generator: Adobe Illustrator 17.1.0, SVG Export Plug-In . SVG Version: 6.00 Build 0)  -->
<!DOCTYPE svg PUBLIC "-//W3C//DTD SVG 1.1//EN" "http://www.w3.org/Graphics/SVG/1.1/DTD/svg11.dtd">
<svg version="1.1" id="Layer_1" xmlns="http://www.w3.org/2000/svg" xmlns:xlink="http://www.w3.org/1999/xlink" x="0px" y="0px" width="65" height="65"
	 viewBox="0 0 65 65" enable-background="new 0 0 65 65" xml:space="preserve">
<g id="search_1_">
	<path fill="#f15623" d="M16.2,28.7c0,6.9,5.6,12.4,12.4,12.4c2.1,0,4.1-0.5,5.8-1.5l8.6,8.6l0,0c0.7,0.7,1.6,1.1,2.6,1.1
		c2,0,3.7-1.6,3.7-3.7c0-1-0.4-1.9-1.1-2.6l0,0l-8.6-8.6c0.9-1.7,1.4-3.7,1.4-5.8c0-6.9-5.6-12.4-12.4-12.4S16.2,21.9,16.2,28.7z
		 M36,38.7c1-0.7,1.9-1.6,2.6-2.6l8.4,8.4l0,0c0.3,0.3,0.6,0.8,0.6,1.3c0,1-0.8,1.8-1.8,1.8c-0.5,0-1-0.2-1.3-0.6L36,38.7z
		 M18.2,28.7c0-5.7,4.6-10.4,10.4-10.4C34.3,18.4,39,23,39,28.7c0,5.7-4.6,10.4-10.4,10.4C22.9,39.1,18.2,34.5,18.2,28.7z"/>
	<path fill="#f15623" d="M28.1,22c0,0.3,0.2,0.5,0.5,0.5c3.4,0,6.2,2.8,6.2,6.2c0,0.3,0.2,0.5,0.5,0.5c0.3,0,0.5-0.2,0.5-0.5
		c0-4-3.2-7.3-7.3-7.3C28.3,21.5,28.1,21.7,28.1,22z"/>
</g>
</svg>
