<?xml version="1.0" encoding="utf-8"?>
<!-- Generator: Adobe Illustrator 17.1.0, SVG Export Plug-In . SVG Version: 6.00 Build 0)  -->
<!DOCTYPE svg PUBLIC "-//W3C//DTD SVG 1.1//EN" "http://www.w3.org/Graphics/SVG/1.1/DTD/svg11.dtd">
<svg version="1.1" id="Layer_1" xmlns="http://www.w3.org/2000/svg" xmlns:xlink="http://www.w3.org/1999/xlink" x="0px" y="0px" width="65" height="65"
	 viewBox="0 0 65 65" enable-background="new 0 0 65 65" xml:space="preserve">
<g>
	<g>
		<g>
			<path fill="#f15623" d="M45.4,28.6c-2.4-2.4-5.9-3-8.3-3.2c0,0,0,0,0-0.1c0-2.5-3.2-4.5-7.3-4.5s-7.3,2-7.3,4.5c0,0,0,0,0,0.1
				c-2.4,0.1-5.9,0.7-8.3,3.2c-3.4,3.4-3.6,6.3-0.7,9.2c0.9,0.8,2.2,2,4,2c1.4,0,2.8-0.7,4.3-2c-0.1,0.6-0.1,1.2-0.1,2
				c0,7.7,7.4,13.7,7.7,14c0.2,0.1,0.3,0.2,0.5,0.2c0.2,0,0.4-0.1,0.5-0.2c0.3-0.3,7.7-6.3,7.7-14c0-0.7-0.1-1.3-0.1-2
				c1.5,1.3,2.9,2,4.3,2c1.8,0,3.2-1.1,4-2C49,34.9,48.7,32,45.4,28.6z M29.7,22.6c3.3,0,5.6,1.5,5.6,2.8c0,0,0,0,0,0
				c-0.5,0-0.9,0-0.9,0c-0.4,0-0.7,0.4-0.8,0.7c0,0.2-0.2,2.3,0.3,4.7c-1.4-0.7-2.9-0.9-4.3-0.9c-1.4,0-2.9,0.2-4.3,0.9
				c0.5-2.5,0.3-4.6,0.3-4.7c0-0.4-0.4-0.7-0.7-0.7c0,0-0.4,0-0.9,0c0,0,0,0,0,0C24.1,24,26.4,22.6,29.7,22.6z M34.4,46.1
				C34.4,46.1,34.4,46.1,34.4,46.1l-9.2,0c0,0,0,0,0,0c-0.7-1.2-1.2-2.5-1.5-3.9h12.4C35.6,43.7,35,44.9,34.4,46.1z M23.3,40.6
				c0-0.3-0.1-0.6-0.1-0.9c0-1.2,0.1-2.1,0.3-3H36c0.2,0.9,0.3,1.8,0.3,3c0,0.3-0.1,0.6-0.1,0.9H23.3z M35.5,35.1H24
				c0.2-0.4,0.5-0.8,0.6-1.2c1.2-1.7,3.1-2.1,5.1-2.1c2,0,3.9,0.4,5.1,2.1C35,34.3,35.3,34.7,35.5,35.1z M21.4,35.8
				c-1.5,1.5-2.8,2.2-3.9,2.2c-0.9,0-1.8-0.5-2.8-1.5c-1.5-1.5-2.7-3.3,0.7-6.8c2.4-2.4,6.2-2.7,8.3-2.7c0.2,0,0.4,0,0.5,0
				c0,1.2,0,3.7-1,6c-0.3,0.5-0.6,0.9-0.8,1.5C22,35,21.7,35.5,21.4,35.8z M29.7,51.9c-0.8-0.7-2.2-2.2-3.6-4.1h7.2
				C32,49.7,30.5,51.2,29.7,51.9z M44.9,36.6c-1,1-1.9,1.5-2.8,1.5c-1.1,0-2.5-0.8-3.9-2.2c-0.4-0.4-0.7-0.8-1-1.2
				c-0.2-0.6-0.5-1.1-0.8-1.5c-0.9-2.3-1-4.8-1-6c1.8-0.1,6.2,0.1,8.8,2.7C47.6,33.2,46.4,35.1,44.9,36.6z"/>
			<circle fill="#f15623" cx="27.2" cy="18.6" r="1.5"/>
			<circle fill="#f15623" cx="32.3" cy="18.6" r="1.5"/>
		</g>
	</g>
	<path fill="#f15623" d="M48.6,16.3c-3.5-3.1-7.9-4.9-12.6-5.2c-0.5,0-0.9,0.3-0.9,0.8c0,0.3,0.1,0.5,0.3,0.7
		c0.1,0.1,0.3,0.2,0.5,0.2c4.3,0.3,8.3,1.9,11.6,4.8c3.2,2.9,5.4,6.6,6.2,10.9c0.1,0.5,0.5,0.8,1,0.7c0.5-0.1,0.8-0.6,0.7-1
		C54.5,23.5,52.2,19.4,48.6,16.3z"/>
	<path fill="#f15623" d="M44.8,19.9c-2.3-1.9-5-3-7.9-3.1c-0.6,0-1.1,0.4-1.1,1c0,0.3,0.2,0.7,0.4,0.9c0.2,0.1,0.4,0.2,0.7,0.3
		c2.4,0.1,4.7,1,6.6,2.6c1.9,1.6,3.2,3.6,3.9,5.9c0.2,0.6,0.7,1,1.3,0.8c0.6-0.1,0.9-0.7,0.8-1.2C48.7,24.3,47.1,21.8,44.8,19.9z"/>
</g>
</svg>
